<svg height="852pt" viewBox="-26 -26 852 852.49772" width="852pt" xmlns="http://www.w3.org/2000/svg"><path d="m329.097656-1.75h137.773438v13.78125c0 22.824219-18.503906 41.328125-41.328125 41.328125h-55.109375c-22.832032 0-41.335938-18.503906-41.335938-41.328125zm0 0"/><path d="m466.871094 260.015625h-137.773438c0-38.042969 30.84375-68.882813 68.886719-68.882813s68.886719 30.839844 68.886719 68.882813zm0 0"/><path d="m329.097656 287.574219h137.773438v68.882812h-137.773438zm0 0"/><path d="m777.6875 560.226562c-4.8125-23.820312-21.746094-43.375-44.640625-51.527343l-161.609375-56.898438c-23.34375-8.308593-44.042969-22.722656-59.925781-41.75l-10.199219-12.257812h-206.660156l-10.191406 12.257812c-15.878907 19.027344-36.578126 33.441407-59.929688 41.75l-161.613281 56.898438c-22.882813 8.152343-39.824219 27.707031-44.628907 51.527343l-19.84375 99.332032h799.074219zm-530.285156-43.539062-161.472656 57.035156-6.746094 33.484375c-1.3125 6.414063-6.957032 11.023438-13.507813 11.023438-.917969-.035157-1.839843-.121094-2.757812-.277344-3.574219-.734375-6.722657-2.855469-8.734375-5.910156-2.015625-3.046875-2.738282-6.769531-2.007813-10.347657l6.617188-33.34375c1.988281-9.519531 8.757812-17.347656 17.90625-20.667968l161.609375-57.039063c7.191406-2.5 15.054687 1.289063 17.566406 8.480469 2.511719 7.1875-1.289062 15.050781-8.472656 17.5625zm0 0"/><path d="m494.425781 370.234375h-192.882812c-7.609375 0-13.777344-6.164063-13.777344-13.777344 0-7.605469 6.167969-13.773437 13.777344-13.773437h192.882812c7.609375 0 13.773438 6.167968 13.773438 13.773437 0 7.613281-6.164063 13.777344-13.773438 13.777344zm0 0"/><path d="m533.003906 687.113281c-13.042968 64.214844-69.496094 110.355469-135.019531 110.355469-65.519531 0-121.980469-46.140625-135.011719-110.355469h42.429688c9.980468 42.4375 49.070312 71.515625 92.582031 68.882813 7.605469 0 13.777344-6.160156 13.777344-13.769532 0-7.617187-6.171875-13.78125-13.777344-13.78125-28.199219 2.363282-54.421875-14.628906-63.789063-41.332031zm0 0"/><path d="m425.542969 80.914062v86.664063c-17.988281-5.332031-37.132813-5.332031-55.109375 0v-86.664063zm0 0"/></svg>