<svg height="200pt" preserveAspectRatio="xMidYMid meet" viewBox="0 0 200 200" width="200pt" xmlns="http://www.w3.org/2000/svg"><g transform="matrix(.1 0 0 -.1 0 200)"><path d="m1310 1185c-103-54-161-113-191-195l-21-58-45 19c-35 15-49 17-60 8-15-13-202-279-222-317-26-48 12-112 67-112 27 0 510 204 531 225 22 22 6 42-58 71-34 14-61 32-61 38 0 30 25 94 47 124 15 19 56 48 104 73 106 53 125 99 62 149-36 28-57 25-153-25zm120-30c0-3-27-18-60-35-74-37-126-82-150-130-21-42-44-155-34-171 3-6 24-19 46-29l39-17-49-20-48-20-21 23c-16 18-32 24-62 24-35 0-43 4-51 24-5 13-18 30-29 38-21 15-21 15-2 32 18 16 22 16 70-5 63-26 73-20 90 55 13 60 53 126 91 154 75 53 170 97 170 77zm-448-396c12-35 48-53 89-44 15 3 30 2 33-3 7-12-257-121-269-110-11 10-2 26 67 122 27 36 53 66 58 66 6 0 16-14 22-31z"/><path d="m915 483c-56-14-76-87-33-117l22-16h-22c-32 0-32-55 1-64 41-11 102-6 125 10 26 18 30 74 7 97-13 13-13 16 0 21 15 6 21 51 8 59-14 8-88 15-108 10zm70-63c7-12-2-12-30 0-19 8-19 9 2 9 12 1 25-3 28-9zm-45-80c0-5-4-10-9-10-6 0-13 5-16 10-3 6 1 10 9 10 9 0 16-4 16-10z"/><path d="m100 456c0-14 5-28 10-31 6-3 10-21 10-40s-4-37-10-40c-5-3-10-17-10-31 0-24 2-24 84-24 75 0 88 3 113 24 23 20 28 32 28 71s-5 51-28 71c-25 21-38 24-113 24-82 0-84 0-84-24zm138-38c25-25 8-78-25-78-9 0-13 15-13 45 0 46 13 58 38 33z"/><path d="m393 455c-32-14-48-46-45-90 4-62 69-98 141-77 47 15 60 29 68 77 14 85-70 131-164 90zm82-80c0-25-4-30-25-30-16 0-26 6-28 18-6 30 6 49 30 45 18-2 23-9 23-33z"/><path d="m570 440c0-16 5-30 11-30 8 0 10-18 5-60l-7-60h46 45v38l1 37 16-29 16-30 18 23 19 23v-30c0-25 5-30 31-36 60-12 69-8 69 24 0 17-4 30-10 30-5 0-10 16-10 35s5 35 10 35c6 0 10 14 10 30 0 29-1 30-49 30-40 0-51-4-56-19-3-11-12-24-20-31-11-9-17-5-30 19-14 28-20 31-65 31-49 0-50-1-50-30z"/><path d="m1040 434c0-34 2-36 25-30s25 3 25-24c0-17-5-39-12-49-6-10-8-26-4-36 5-14 14-16 54-10 26 4 50 9 55 12 11 6 9 43-3 43-5 0-10 16-10 35 0 33 2 35 25 29s25-4 25 30v36h-90-90z"/><path d="m1230 440c0-16 5-30 10-30 14 0 13-67-1-72-7-2-9-13-5-26 6-18 15-22 52-22 41 0 44 2 45 28l1 27 10-27c8-24 15-28 49-28 43 0 49 12 24 47-13 18-13 22 0 33 8 7 15 27 15 45 0 28-5 35-31 44-18 6-63 11-100 11h-69zm120-36c0-8-4-14-10-14-5 0-10 9-10 21 0 11 5 17 10 14 6-3 10-13 10-21z"/><path d="m1504 460c-49-20-70-93-39-137 33-48 127-54 172-11 25 23 32 83 13 118-18 33-98 50-146 30zm81-61c4-5 4-21 1-35-5-19-12-25-29-22-17 2-23 11-25 36-3 28 0 32 22 32 14 0 28-5 31-11z"/><path d="m1670 435c0-14 6-25 13-25 19 0 52-61 48-92-2-28-2-28 54-28h57l-4 31c-4 25 2 38 29 66 18 20 33 44 33 54 0 16-8 19-51 19-49 0-50-1-48-28 4-31-8-55-22-47-5 4-9 22-9 41v34h-50c-47 0-50-2-50-25z"/></g></svg>